<?xml version="1.0" encoding="UTF-8"?>
<svg xmlns="http://www.w3.org/2000/svg" xmlns:xlink="http://www.w3.org/1999/xlink" width="32px" height="220px" viewBox="0 0 32 11" version="1.1">
<g id="surface1">
<path style=" stroke:none;fill-rule:nonzero;fill:rgb(0%,0%,0%);fill-opacity:1;" d="M 19.617188 5.574219 L 19.617188 8.945312 L 21.007812 8.945312 L 21.007812 2.203125 L 19.617188 2.203125 Z M 19.617188 5.574219 "/>
<path style=" stroke:none;fill-rule:nonzero;fill:rgb(0%,0%,0%);fill-opacity:1;" d="M 2.921875 5.605469 L 2.921875 8.945312 L 9.878906 8.945312 L 9.878906 4.9375 L 5.703125 4.9375 L 5.703125 6.273438 L 8.488281 6.273438 L 8.488281 7.609375 L 4.3125 7.609375 L 4.3125 3.605469 L 9.878906 3.605469 L 9.878906 2.269531 L 2.921875 2.269531 Z M 2.921875 5.605469 "/>
<path style=" stroke:none;fill-rule:nonzero;fill:rgb(0%,0%,0%);fill-opacity:1;" d="M 11.269531 5.605469 L 11.269531 8.945312 L 12.660156 8.945312 L 12.660156 6.273438 L 16.835938 6.273438 L 16.835938 8.945312 L 18.226562 8.945312 L 18.226562 4.9375 L 16.835938 4.9375 L 16.835938 2.269531 L 11.269531 2.269531 Z M 15.445312 4.273438 L 15.445312 4.9375 L 12.660156 4.9375 L 12.660156 3.605469 L 15.445312 3.605469 Z M 15.445312 4.273438 "/>
<path style=" stroke:none;fill-rule:nonzero;fill:rgb(0%,0%,0%);fill-opacity:1;" d="M 22.398438 5.605469 L 22.398438 8.945312 L 27.964844 8.945312 L 27.964844 7.609375 L 29.355469 7.609375 L 29.355469 3.605469 L 27.964844 3.605469 L 27.964844 2.269531 L 22.398438 2.269531 Z M 27.964844 5.605469 L 27.964844 7.609375 L 23.792969 7.609375 L 23.792969 3.605469 L 27.964844 3.605469 Z M 27.964844 5.605469 "/>
</g>
</svg>
