<?xml version="1.0" standalone="no"?>
<!DOCTYPE svg PUBLIC "-//W3C//DTD SVG 20010904//EN"
 "http://www.w3.org/TR/2001/REC-SVG-20010904/DTD/svg10.dtd">
<svg version="1.0" xmlns="http://www.w3.org/2000/svg"
 width="91.000000pt" height="32.000000pt" viewBox="0 0 91.000000 32.000000"
 preserveAspectRatio="xMidYMid meet">

<g transform="translate(0.000000,32.000000) scale(0.100000,-0.100000)"
fill="#000000" stroke="none">
<path d="M80 160 l0 -100 100 0 100 0 0 60 0 60 -60 0 c-53 0 -60 -2 -60 -20
0 -17 7 -20 40 -20 33 0 40 -3 40 -20 0 -18 -7 -20 -60 -20 l-60 0 0 60 0 60
80 0 c73 0 80 2 80 20 0 19 -7 20 -100 20 l-100 0 0 -100z"/>
<path d="M320 160 c0 -93 1 -100 20 -100 17 0 20 7 20 40 l0 40 60 0 60 0 0
-40 c0 -33 3 -40 20 -40 18 0 20 7 20 60 0 53 -2 60 -20 60 -17 0 -20 7 -20
40 l0 40 -80 0 -80 0 0 -100z m120 40 c0 -17 -7 -20 -40 -20 -33 0 -40 3 -40
20 0 17 7 20 40 20 33 0 40 -3 40 -20z"/>
<path d="M560 160 c0 -93 1 -100 20 -100 19 0 20 7 20 100 0 93 -1 100 -20
100 -19 0 -20 -7 -20 -100z"/>
<path d="M640 160 l0 -100 80 0 c73 0 80 2 80 20 0 13 7 20 20 20 18 0 20 7
20 60 0 53 -2 60 -20 60 -13 0 -20 7 -20 20 0 18 -7 20 -80 20 l-80 0 0 -100z
m160 0 l0 -60 -60 0 -60 0 0 60 0 60 60 0 60 0 0 -60z"/>
</g>
</svg>
