<?xml version="1.0" standalone="no"?>
<!DOCTYPE svg PUBLIC "-//W3C//DTD SVG 20010904//EN"
 "http://www.w3.org/TR/2001/REC-SVG-20010904/DTD/svg10.dtd">
<svg version="1.0" xmlns="http://www.w3.org/2000/svg"
 width="460.000000pt" height="165.000000pt" viewBox="0 0 460.000000 165.000000"
 preserveAspectRatio="xMidYMid meet">

<g transform="translate(0.000000,165.000000) scale(0.100000,-0.100000)"
fill="#000000" stroke="none">
<path d="M2820 815 l0 -505 100 0 100 0 0 505 0 505 -100 0 -100 0 0 -505z"/>
<path d="M420 810 l0 -500 500 0 500 0 0 300 0 300 -300 0 -300 0 0 -100 0
-100 200 0 200 0 0 -100 0 -100 -300 0 -300 0 0 300 0 300 400 0 400 0 0 100
0 100 -500 0 -500 0 0 -500z"/>
<path d="M1620 810 l0 -500 100 0 100 0 0 200 0 200 300 0 300 0 0 -200 0
-200 100 0 100 0 0 300 0 300 -100 0 -100 0 0 200 0 200 -400 0 -400 0 0 -500z
m600 200 l0 -100 -200 0 -200 0 0 100 0 100 200 0 200 0 0 -100z"/>
<path d="M3220 810 l0 -500 400 0 400 0 0 100 0 100 100 0 100 0 0 300 0 300
-100 0 -100 0 0 100 0 100 -400 0 -400 0 0 -500z m800 0 l0 -300 -300 0 -300
0 0 300 0 300 300 0 300 0 0 -300z"/>
</g>
</svg>
